<?xml version="1.0" encoding="utf-8"?>
<!-- Generator: Adobe Illustrator 27.4.0, SVG Export Plug-In . SVG Version: 6.00 Build 0)  -->
<svg version="1.1" id="Layer_1" xmlns="http://www.w3.org/2000/svg" xmlns:xlink="http://www.w3.org/1999/xlink" x="0px" y="0px"
	 viewBox="0 0 369.6 284.6" style="enable-background:new 0 0 369.6 284.6;" xml:space="preserve">
<style type="text/css">
	.st0{fill:#302D2B;}
</style>
<g>
	<g>
		<g>
			<path class="st0" d="M301.1,36.6c-23.6,9.6-46.5,21-68.1,34.5c-30.7,19.1-58.7,43-79.5,72.8c-9.4,13.4-17.2,27.9-26.4,41.5
				c-3.9,5.8-10,13.2-16.4,19.6c-8.7,8.7-27.1,23.9-61.1,31.4c-0.1,0-0.1,0.1,0,0.1c18.5,0.6,46.4-0.8,77.2-12
				c20.9-7.6,40.4-18.7,58-32.3c19.9-15.4,37.3-33.8,52.4-53.8c15.3-20.1,27.1-42.6,41.3-63.6C284.1,66.4,290,58.1,296,50
				c2-2.7,10.2-14.3,14.5-15.1c0.1,0,0.1-0.1,0-0.1C307.2,34.3,304.1,35.3,301.1,36.6z M224.6,104.5c-16.6,16.3-28.8,35.8-43.2,53.9
				c-19.2,24.1-44.8,41.8-74.3,50.8c-0.5,0.2-1,0.3-1.5,0.5c0.5-0.2,1-0.3,1.5-0.5c30.9-9.7,55.9-36.6,75-61.5
				c18-23.5,39.2-49.8,65.9-64c1.5-0.8,3.4-1.3,4.8-2.2C240.4,90,231.1,98.2,224.6,104.5z"/>
		</g>
	</g>
</g>
</svg>
