<?xml version="1.0" encoding="utf-8"?>
<!-- Generator: Adobe Illustrator 27.4.0, SVG Export Plug-In . SVG Version: 6.00 Build 0)  -->
<svg version="1.1" id="Layer_1" xmlns="http://www.w3.org/2000/svg" xmlns:xlink="http://www.w3.org/1999/xlink" x="0px" y="0px"
	 viewBox="0 0 512.90118 370.07416" style="enable-background:new 0 0 512.90118 370.07416;" xml:space="preserve">
<style type="text/css">
	.owl-eyeball{fill:#9FAD8E;}
	.owl-body{fill:#1A1A1A;}
</style>
<g>
	<circle class="owl-eyeball" cx="256.45059" cy="234.28624" r="56.18217"/>
	<circle class="owl-body" cx="256.45059" cy="234.28624" r="22.51875"/>
	<g>
		<path class="owl-body" d="M491.36877,10.61919c-0.33075-0.75432-1.39719-0.75448-1.74115-0.00582
			c-13.61581,29.65543-32.72488,56.26267-56.02039,78.52634c3.03445-13.17101,4.63846-26.88884,4.63846-40.98139
			c0-15.18753-1.87384-29.93563-5.38272-44.0373c-11.64682,46.80703-41.43207,86.44064-81.45923,111.01035l-31.98962-62.18464
			c-0.31186-0.60535-1.13879-0.69977-1.57828-0.18016l-20.01071,23.6394c-0.43945,0.51962-1.26639,0.42529-1.57764-0.18015
			L257.30072,0.5181c-0.35587-0.6908-1.34309-0.6908-1.69899,0l-38.94742,75.70788
			c-0.31189,0.60538-1.13875,0.69977-1.57826,0.18005l-20.00945-23.6393c-0.43953-0.51968-1.2664-0.42529-1.57762,0.18016
			l-31.9911,62.18482C121.47043,90.56201,91.68501,50.92827,80.03819,4.12102c-3.50889,14.10167-5.38274,28.84977-5.38274,44.0373
			c0,14.09267,1.60394,27.81063,4.63852,40.98174C55.99909,66.87702,36.89051,40.27051,23.27482,10.61594
			c-0.34397-0.74904-1.41165-0.74904-1.74303,0.00566C1.06837,57.22393-5.94705,111.06917,5.44415,167.25745
			c20.11067,99.19943,98.05328,177.21436,197.24719,197.35214c165.15112,33.52808,310.20984-91.78888,310.20984-250.98601
			C512.90118,76.98542,505.21161,42.14496,491.36877,10.61919z M256.45059,317.71259
			c-50.26947,0-91.02087-40.7515-91.02087-91.02109c0-6.8313,0.75822-13.48473,2.18494-19.88608
			c26.26878,14.74103,56.57028,23.14804,88.83591,23.14804s62.5672-8.40701,88.83597-23.14807
			c1.42676,6.40138,2.18497,13.05481,2.18497,19.88611C347.4715,276.96109,306.72006,317.71259,256.45059,317.71259z"/>
	</g>
</g>
</svg>
